<svg xmlns="http://www.w3.org/2000/svg" version="1.1" xmlns:xlink="http://www.w3.org/1999/xlink" xmlns:svgjs="http://svgjs.dev/svgjs" width="1000" height="1000" viewBox="0 0 1000 1000"><rect width="1000" height="1000" fill="#000000"></rect><g transform="matrix(0.7,0,0,0.7,150.0017001702771,106.25)"><svg viewBox="0 0 320 360" data-background-color="#ffffff" preserveAspectRatio="xMidYMid meet" height="1125" width="1000" xmlns="http://www.w3.org/2000/svg" xmlns:xlink="http://www.w3.org/1999/xlink"><g id="tight-bounds" transform="matrix(1,0,0,1,-0.0003214121143741977,0)"><svg viewBox="0 0 320 360" height="360" width="320"><rect width="320.0010986328125" height="360" fill="#ffffff" mask="url(#5043bd2a-d42b-4882-9374-e5f960e8d6c9)" data-fill-palette-color="tertiary"></rect><g><svg></svg></g><g><svg viewBox="0 0 320 360" height="360" width="320"><g><path xmlns="http://www.w3.org/2000/svg" d="M307.925 179.999l6.575-11.387c11.322-19.607 4.604-44.679-15.003-56.001l-11.387-6.575v-13.151c0-22.639-18.354-40.994-40.994-40.994h-13.151l-6.575-11.387c-11.322-19.607-36.393-26.325-56.001-15.003l-11.39 6.572-11.387-6.576c-19.607-11.318-44.679-4.6-56.001 15.007l-6.575 11.387h-13.151c-22.639 0-40.994 18.354-40.994 40.994v13.151l-11.387 6.575c-19.607 11.322-26.325 36.393-15.003 56.001l6.572 11.387-6.576 11.387c-11.318 19.607-4.6 44.679 15.007 56l11.387 6.576v13.15c0 22.639 18.354 40.994 40.994 40.994h13.151l6.575 11.387c11.322 19.607 36.393 26.325 56.001 15.003l11.387-6.571 11.387 6.575c19.607 11.322 44.679 4.604 56-15.003l6.576-11.387h13.15c22.639 0 40.994-18.354 40.994-40.994v-13.151l11.387-6.575c19.607-11.322 26.325-36.393 15.003-56.001zM297.702 115.716c8.655 4.996 14.842 13.062 17.428 22.713 2.586 9.65 1.261 19.734-3.735 28.384l-5.538 9.596-17.747-30.74v-35.494zM251.155 271.155l-57.791 33.365h-66.731l-57.791-33.365-33.365-57.791v-66.731l33.365-57.791 57.791-33.365h66.731l57.791 33.365 33.365 57.791v66.731zM284.517 220.539v31.351l-27.151 15.676zM247.566 277.366l-15.676 27.151h-31.351zM187.15 308.106l-27.151 15.676-27.151-15.676zM119.459 304.517h-31.352l-15.676-27.151zM62.632 267.566l-27.151-15.676v-31.351zM31.891 207.15l-15.675-27.151 15.675-27.151zM35.481 139.459v-31.352l27.151-15.676zM72.431 82.632l15.676-27.151h31.352zM132.848 51.891l27.151-15.675 27.151 15.675zM200.539 55.481h31.351l15.676 27.151zM257.366 92.431l27.151 15.676v31.352zM288.106 152.848l15.676 27.151-15.676 27.151zM247.112 55.481c9.992 0 19.384 3.889 26.452 10.956 7.063 7.063 10.956 16.46 10.957 26.452v11.079l-30.741-17.747-17.747-30.74zM173.18 28.606c8.655-4.996 18.735-6.322 28.385-3.735 9.65 2.586 17.716 8.777 22.712 17.428l5.538 9.596h-35.494l-30.741-17.747zM95.716 42.295c4.996-8.655 13.062-14.842 22.713-17.428 9.65-2.586 19.734-1.261 28.384 3.736l9.596 5.537-30.74 17.747h-35.494zM35.481 92.885c0-9.992 3.889-19.384 10.956-26.452 7.063-7.063 16.46-10.956 26.452-10.956h11.079l-17.747 30.74-30.74 17.747zM8.606 166.817c-4.996-8.655-6.322-18.735-3.735-28.385 2.586-9.65 8.777-17.716 17.428-22.712l9.596-5.538v35.495l-17.747 30.74zM22.295 244.281c-8.655-4.996-14.842-13.062-17.428-22.712-2.586-9.65-1.261-19.734 3.736-28.385l5.537-9.596 17.747 30.74v35.495zM72.885 304.517c-9.992 0-19.384-3.889-26.452-10.957-7.063-7.063-10.956-16.46-10.956-26.451v-11.08l30.74 17.747 17.747 30.741zM146.817 331.391c-8.655 4.996-18.735 6.322-28.385 3.735-9.65-2.586-17.716-8.777-22.712-17.428l-5.538-9.596h35.495l30.74 17.747zM224.281 317.702c-4.996 8.655-13.062 14.842-22.712 17.428-9.65 2.586-19.734 1.261-28.385-3.735l-9.596-5.538 30.74-17.747h35.495zM284.517 267.112c0 9.992-3.889 19.384-10.957 26.452-7.063 7.063-16.46 10.956-26.451 10.957h-11.08l17.747-30.741 30.741-17.747zM315.13 221.565c-2.586 9.65-8.777 17.716-17.428 22.712l-9.596 5.538v-35.494l17.747-30.741 5.538 9.596c4.996 8.658 6.326 18.739 3.739 28.389z" fill="#ffffff" fill-rule="nonzero" stroke="none" stroke-width="1" stroke-linecap="butt" stroke-linejoin="miter" stroke-miterlimit="10" stroke-dasharray="" stroke-dashoffset="0" font-family="none" font-weight="none" font-size="none" text-anchor="none" style="mix-blend-mode: normal" data-fill-palette-color="tertiary"></path></g><g transform="matrix(1,0,0,1,64,170.2454025974026)"><svg viewBox="0 0 192 19.509194805194806" height="19.509194805194806" width="192"><g><svg viewBox="0 0 192 19.509194805194806" height="19.509194805194806" width="192"><g><svg viewBox="0 0 192 19.509194805194806" height="19.509194805194806" width="192"><g><svg viewBox="0 0 192 19.509194805194806" height="19.509194805194806" width="192"><g id="textblocktransform"><svg viewBox="0 0 192 19.509194805194806" height="19.509194805194806" width="192" id="textblock"><g><svg viewBox="0 0 192 19.509194805194806" height="19.509194805194806" width="192"><g transform="matrix(1,0,0,1,0,0)"><svg width="192" viewBox="0.15000009536743164 -36.5 482.2099914550781 49.900001525878906" height="19.509194805194806" data-palette-color="url(#d4a119cc-012e-49c9-9dd9-dac0b4588e95)"></svg></g></svg></g></svg></g></svg></g></svg></g></svg></g></svg></g></svg></g><defs></defs><mask id="a7996ad6-3321-43b7-8c22-b2df10478d15"><g id="SvgjsG1851"><svg viewBox="0 0 320 360" height="360" width="320"><g><svg></svg></g><g><svg viewBox="0 0 320 360" height="360" width="320"><g></g><g transform="matrix(1,0,0,1,64,170.2454025974026)"><svg viewBox="0 0 192 19.509194805194806" height="19.509194805194806" width="192"><g><svg viewBox="0 0 192 19.509194805194806" height="19.509194805194806" width="192"><g><svg viewBox="0 0 192 19.509194805194806" height="19.509194805194806" width="192"><g><svg viewBox="0 0 192 19.509194805194806" height="19.509194805194806" width="192"><g id="SvgjsG1850"><svg viewBox="0 0 192 19.509194805194806" height="19.509194805194806" width="192" id="SvgjsSvg1849"><g><svg viewBox="0 0 192 19.509194805194806" height="19.509194805194806" width="192"><g transform="matrix(1,0,0,1,0,0)"><svg width="192" viewBox="0.15000009536743164 -36.5 482.2099914550781 49.900001525878906" height="19.509194805194806" data-palette-color="url(#d4a119cc-012e-49c9-9dd9-dac0b4588e95)"><path d="M37.5-8.15L41.2-2.9Q39.75-1.3 37.98-0.3 36.2 0.7 33.55 0.7L33.55 0.7Q28.75 0.7 25.58-2.63 22.4-5.95 20.8-13L20.8-13 20.65-13.65 15.35-13.65 15.35-6.3 20.7-6.3 20.7 0 1.65 0 1.65-6.35 7.25-6.35 7.25-27.95 1.65-27.95 1.65-34.3 22.2-34.3Q28.4-34.3 32.15-31.63 35.9-28.95 35.9-24.05L35.9-24.05Q35.9-20.15 33.77-17.63 31.65-15.1 27.75-14.15L27.75-14.15 28-13.4Q29.2-9.65 30.73-8.18 32.25-6.7 34.05-6.7L34.05-6.7Q35.15-6.7 35.95-7.08 36.75-7.45 37.5-8.15L37.5-8.15ZM15.35-27.95L15.35-19.6 22.45-19.6Q24.55-19.6 26.23-20.65 27.9-21.7 27.9-24.05L27.9-24.05Q27.9-26.15 26.28-27.05 24.65-27.95 22.45-27.95L22.45-27.95 15.35-27.95ZM68.5-6.05L69.95-0.7Q69.15-0.25 67.85 0.08 66.55 0.4 65.05 0.4L65.05 0.4Q63.1 0.4 61.52-0.68 59.95-1.75 59.25-3.75L59.25-3.75Q54.65 0.7 49.55 0.7L49.55 0.7Q46.15 0.7 43.85-1.25 41.55-3.2 41.55-6.85L41.55-6.85Q41.55-9.4 43.02-11.23 44.5-13.05 46.77-13.95 49.05-14.85 51.5-14.85L51.5-14.85Q53.65-14.85 55.37-14.45 57.1-14.05 58.8-13.3L58.8-13.3 58.8-14.75Q58.8-16.25 57.27-17.03 55.75-17.8 53.35-17.8L53.35-17.8Q51.6-17.8 49.3-17.3 47-16.8 44.55-15.85L44.55-15.85 43.05-21.55Q49.35-24.15 54.45-24.15L54.45-24.15Q60.1-24.15 63.05-21.5 66-18.85 66-14.4L66-14.4 66-7.3Q66-5.85 67.25-5.85L67.25-5.85Q67.9-5.85 68.5-6.05L68.5-6.05ZM49.1-7.25Q49.1-6.35 49.85-5.93 50.6-5.5 51.8-5.5L51.8-5.5Q53-5.5 54.87-6.23 56.75-6.95 58.8-8.45L58.8-8.45 58.8-8.55Q56.05-9.5 53.05-9.5L53.05-9.5Q51.35-9.45 50.22-8.9 49.1-8.35 49.1-7.25L49.1-7.25ZM79.35-27.15Q77.3-27.15 75.9-28.25 74.5-29.35 74.5-31L74.5-31Q74.5-32.75 75.9-33.88 77.3-35 79.35-35L79.35-35Q81.55-35 82.92-33.88 84.3-32.75 84.3-31L84.3-31Q84.3-29.35 82.9-28.25 81.5-27.15 79.35-27.15L79.35-27.15ZM83.5-23.55L83.5-0.2Q83.5 3.7 82.05 6.43 80.6 9.15 78.05 10.53 75.5 11.9 72.3 11.9L72.3 11.9Q70.5 11.9 69.35 11.65 68.2 11.4 66.65 10.85L66.65 10.85 65.7 10.55 67.55 4.3Q69.2 4.85 70.02 5.05 70.85 5.25 71.95 5.25L71.95 5.25Q73.8 5.25 74.85 3.88 75.9 2.5 75.9-0.05L75.9-0.05 75.9-17.6 71.3-17.6 71.3-23.55 83.5-23.55ZM119.34-7.2L123.19-2.9Q121.74-1.1 120.09-0.2 118.44 0.7 115.94 0.7L115.94 0.7Q112.29 0.7 109.79-1.85 107.29-4.4 106.54-8.75L106.54-8.75Q103.44-9.05 100.34-10.55L100.34-10.55 100.34-5.95 104.19-5.95 104.19 0 88.24 0 88.24-5.95 92.89-5.95 92.89-28.35 88.24-28.35 88.24-34.3 100.34-34.3 100.34-19.55Q105.09-24.2 110.24-24.2L110.24-24.2Q113.99-24.2 116.57-22.28 119.14-20.35 119.14-16.65L119.14-16.65Q119.14-14 117.42-12.15 115.69-10.3 113.04-9.4L113.04-9.4Q113.34-7.85 114.24-6.88 115.14-5.9 116.29-5.9L116.29-5.9Q118.14-5.9 119.34-7.2L119.34-7.2ZM100.94-15Q103.74-13.95 106.24-13.95L106.24-13.95Q108.39-13.95 109.79-14.53 111.19-15.1 111.19-16.25L111.19-16.25Q111.19-18.05 108.04-18.05L108.04-18.05Q106.69-18.05 104.84-17.3 102.99-16.55 100.94-15L100.94-15ZM154.49-6.05L155.99-0.7Q155.19-0.25 153.94 0.08 152.69 0.4 151.34 0.4L151.34 0.4Q148.84 0.4 147.04-0.88 145.24-2.15 144.69-4.45L144.69-4.45Q142.29-1.8 140.14-0.58 137.99 0.65 135.54 0.65L135.54 0.65Q131.24 0.65 128.92-2.33 126.59-5.3 126.59-11.1L126.59-11.1 126.59-17.6 122.54-17.6 122.54-23.55 134.19-23.55 134.19-11.1Q134.19-8.9 135.14-7.65 136.09-6.4 138.39-6.4L138.39-6.4Q141.19-6.4 144.44-9.95L144.44-9.95 144.44-17.6 140.74-17.6 140.74-23.55 152.04-23.55 152.04-7.3Q152.04-5.85 153.29-5.85L153.29-5.85Q153.99-5.85 154.49-6.05L154.49-6.05ZM205.89-5.95L209.89-5.95 209.89 0 194.59 0 194.59-5.95 198.29-5.95 198.29-12.8Q198.29-14.6 197.31-15.83 196.34-17.05 194.59-17.05L194.59-17.05Q191.24-17.05 187.99-13.05L187.99-13.05 187.99-12.8 187.99-5.95 191.69-5.95 191.69 0 176.59 0 176.59-5.95 180.39-5.95 180.39-12.8Q180.39-14.6 179.39-15.83 178.39-17.05 176.59-17.05L176.59-17.05Q173.29-17.05 169.94-13L169.94-13 169.94-5.95 173.74-5.95 173.74 0 157.64 0 157.64-5.95 162.34-5.95 162.34-17.6 157.64-17.6 157.64-23.55 169.94-23.55 169.94-19.1Q171.94-21.55 174.36-22.85 176.79-24.15 179.44-24.15L179.44-24.15Q182.29-24.15 184.29-22.63 186.29-21.1 187.24-18.2L187.24-18.2Q189.34-21.1 191.94-22.63 194.54-24.15 197.39-24.15L197.39-24.15Q201.39-24.15 203.64-21.23 205.89-18.3 205.89-12.8L205.89-12.8 205.89-5.95ZM239.19-6.05L240.64-0.7Q239.84-0.25 238.54 0.08 237.24 0.4 235.74 0.4L235.74 0.4Q233.79 0.4 232.21-0.68 230.64-1.75 229.94-3.75L229.94-3.75Q225.34 0.7 220.24 0.7L220.24 0.7Q216.84 0.7 214.54-1.25 212.24-3.2 212.24-6.85L212.24-6.85Q212.24-9.4 213.71-11.23 215.19-13.05 217.46-13.95 219.74-14.85 222.19-14.85L222.19-14.85Q224.34-14.85 226.06-14.45 227.79-14.05 229.49-13.3L229.49-13.3 229.49-14.75Q229.49-16.25 227.96-17.03 226.44-17.8 224.04-17.8L224.04-17.8Q222.29-17.8 219.99-17.3 217.69-16.8 215.24-15.85L215.24-15.85 213.74-21.55Q220.04-24.15 225.14-24.15L225.14-24.15Q230.79-24.15 233.74-21.5 236.69-18.85 236.69-14.4L236.69-14.4 236.69-7.3Q236.69-5.85 237.94-5.85L237.94-5.85Q238.59-5.85 239.19-6.05L239.19-6.05ZM219.79-7.25Q219.79-6.35 220.54-5.93 221.29-5.5 222.49-5.5L222.49-5.5Q223.69-5.5 225.56-6.23 227.44-6.95 229.49-8.45L229.49-8.45 229.49-8.55Q226.74-9.5 223.74-9.5L223.74-9.5Q222.04-9.45 220.91-8.9 219.79-8.35 219.79-7.25L219.79-7.25ZM264.48-24.15L267.33-24.15 267.33-13.15 260.78-13.15 260.78-16.55Q259.78-16.6 258.08-15.5 256.38-14.4 254.58-12.45L254.58-12.45 254.58-5.95 259.33-5.95 259.33 0 242.28 0 242.28-5.95 246.98-5.95 246.98-17.6 242.28-17.6 242.28-23.55 254.58-23.55 254.58-18.4Q256.98-21.05 259.58-22.6 262.18-24.15 264.48-24.15L264.48-24.15ZM283.98-15.05L283.98-8.6 270.58-8.6 270.58-15.05 283.98-15.05ZM324.73-6.35L328.08-6.35 328.08 0 310.73 0 310.73-6.35 314.53-6.35 306.93-14.7 300.58-9.6 300.58-6.35 305.68-6.35 305.68 0 286.88 0 286.88-6.35 292.48-6.35 292.48-27.95 286.88-27.95 286.88-34.3 305.68-34.3 305.68-27.95 300.58-27.95 300.58-16.8 314.48-27.95 309.98-27.95 309.98-34.3 327.23-34.3 327.23-27.95 323.43-27.95 312.58-19.25 324.73-6.35ZM360.73-5.95L364.73-5.95 364.73 0 349.32 0 349.32-5.95 353.13-5.95 353.13-12.5Q353.13-14.7 351.95-16.05 350.78-17.4 348.68-17.4L348.68-17.4Q345.48-17.4 341.73-13L341.73-13 341.73-5.95 345.48-5.95 345.48 0 329.43 0 329.43-5.95 334.13-5.95 334.13-28.35 329.43-28.35 329.43-34.3 341.73-34.3 341.73-18.6Q344.28-21.5 346.65-22.83 349.03-24.15 351.93-24.15L351.93-24.15Q356.38-24.15 358.55-21.23 360.73-18.3 360.73-12.5L360.73-12.5 360.73-5.95ZM394.02-6.05L395.47-0.7Q394.67-0.25 393.37 0.08 392.07 0.4 390.57 0.4L390.57 0.4Q388.62 0.4 387.05-0.68 385.47-1.75 384.77-3.75L384.77-3.75Q380.17 0.7 375.07 0.7L375.07 0.7Q371.67 0.7 369.37-1.25 367.07-3.2 367.07-6.85L367.07-6.85Q367.07-9.4 368.55-11.23 370.02-13.05 372.3-13.95 374.57-14.85 377.02-14.85L377.02-14.85Q379.17-14.85 380.9-14.45 382.62-14.05 384.32-13.3L384.32-13.3 384.32-14.75Q384.32-16.25 382.8-17.03 381.27-17.8 378.87-17.8L378.87-17.8Q377.12-17.8 374.82-17.3 372.52-16.8 370.07-15.85L370.07-15.85 368.57-21.55Q374.87-24.15 379.97-24.15L379.97-24.15Q385.62-24.15 388.57-21.5 391.52-18.85 391.52-14.4L391.52-14.4 391.52-7.3Q391.52-5.85 392.77-5.85L392.77-5.85Q393.42-5.85 394.02-6.05L394.02-6.05ZM374.62-7.25Q374.62-6.35 375.37-5.93 376.12-5.5 377.32-5.5L377.32-5.5Q378.52-5.5 380.4-6.23 382.27-6.95 384.32-8.45L384.32-8.45 384.32-8.55Q381.57-9.5 378.57-9.5L378.57-9.5Q376.87-9.45 375.75-8.9 374.62-8.35 374.62-7.25L374.62-7.25ZM415.17-7.55L417.72-1.95Q415.97-0.7 413.97-0.03 411.97 0.65 409.42 0.65L409.42 0.65Q404.87 0.65 402.32-2.23 399.77-5.1 399.77-9.95L399.77-9.95 399.77-17.6 395.17-17.6 395.17-23.55 399.77-23.55 399.77-30.1 407.37-30.1 407.37-23.55 414.02-23.55 414.02-17.6 407.37-17.6 407.37-9.95Q407.37-8.1 408.19-7.05 409.02-6 410.77-6L410.77-6Q411.87-6 412.87-6.38 413.87-6.75 415.17-7.55L415.17-7.55ZM448.97-6.05L450.47-0.7Q449.67-0.25 448.42 0.08 447.17 0.4 445.82 0.4L445.82 0.4Q443.32 0.4 441.52-0.88 439.72-2.15 439.17-4.45L439.17-4.45Q436.77-1.8 434.62-0.58 432.47 0.65 430.02 0.65L430.02 0.65Q425.72 0.65 423.39-2.33 421.07-5.3 421.07-11.1L421.07-11.1 421.07-17.6 417.02-17.6 417.02-23.55 428.67-23.55 428.67-11.1Q428.67-8.9 429.62-7.65 430.57-6.4 432.87-6.4L432.87-6.4Q435.67-6.4 438.92-9.95L438.92-9.95 438.92-17.6 435.22-17.6 435.22-23.55 446.52-23.55 446.52-7.3Q446.52-5.85 447.77-5.85L447.77-5.85Q448.47-5.85 448.97-6.05L448.97-6.05ZM479.41-6.05L480.86-0.7Q480.06-0.25 478.76 0.08 477.46 0.4 475.96 0.4L475.96 0.4Q474.01 0.4 472.44-0.68 470.86-1.75 470.16-3.75L470.16-3.75Q465.56 0.7 460.46 0.7L460.46 0.7Q457.06 0.7 454.76-1.25 452.46-3.2 452.46-6.85L452.46-6.85Q452.46-9.4 453.94-11.23 455.41-13.05 457.69-13.95 459.96-14.85 462.41-14.85L462.41-14.85Q464.56-14.85 466.29-14.45 468.01-14.05 469.71-13.3L469.71-13.3 469.71-14.75Q469.71-16.25 468.19-17.03 466.66-17.8 464.26-17.8L464.26-17.8Q462.51-17.8 460.21-17.3 457.91-16.8 455.46-15.85L455.46-15.85 453.96-21.55Q460.26-24.15 465.36-24.15L465.36-24.15Q471.01-24.15 473.96-21.5 476.91-18.85 476.91-14.4L476.91-14.4 476.91-7.3Q476.91-5.85 478.16-5.85L478.16-5.85Q478.81-5.85 479.41-6.05L479.41-6.05ZM460.01-7.25Q460.01-6.35 460.76-5.93 461.51-5.5 462.71-5.5L462.71-5.5Q463.91-5.5 465.79-6.23 467.66-6.95 469.71-8.45L469.71-8.45 469.71-8.55Q466.96-9.5 463.96-9.5L463.96-9.5Q462.26-9.45 461.14-8.9 460.01-8.35 460.01-7.25L460.01-7.25Z" opacity="1" transform="matrix(1,0,0,1,0,0)" fill="white" class="wordmark-text-0" id="SvgjsPath1848"></path></svg></g></svg></g></svg></g></svg></g></svg></g></svg></g></svg></g></svg></g><defs><mask></mask></defs></svg></g></mask><linearGradient x1="0" x2="1" y1="0.5" y2="0.5" id="d4a119cc-012e-49c9-9dd9-dac0b4588e95"><stop stop-color="#ffa62e" offset="0"></stop><stop stop-color="#f71b3d" offset="1"></stop></linearGradient><rect width="320.00067138671875" height="360" fill="#ffffff" mask="url(#a7996ad6-3321-43b7-8c22-b2df10478d15)" data-fill-palette-color="primary"></rect><mask id="5043bd2a-d42b-4882-9374-e5f960e8d6c9"><g id="SvgjsG1858"><svg viewBox="0 0 320 360" height="360" width="320"><g><svg></svg></g><g><svg viewBox="0 0 320 360" height="360" width="320"><g><path xmlns="http://www.w3.org/2000/svg" d="M307.925 179.999l6.575-11.387c11.322-19.607 4.604-44.679-15.003-56.001l-11.387-6.575v-13.151c0-22.639-18.354-40.994-40.994-40.994h-13.151l-6.575-11.387c-11.322-19.607-36.393-26.325-56.001-15.003l-11.39 6.572-11.387-6.576c-19.607-11.318-44.679-4.6-56.001 15.007l-6.575 11.387h-13.151c-22.639 0-40.994 18.354-40.994 40.994v13.151l-11.387 6.575c-19.607 11.322-26.325 36.393-15.003 56.001l6.572 11.387-6.576 11.387c-11.318 19.607-4.6 44.679 15.007 56l11.387 6.576v13.15c0 22.639 18.354 40.994 40.994 40.994h13.151l6.575 11.387c11.322 19.607 36.393 26.325 56.001 15.003l11.387-6.571 11.387 6.575c19.607 11.322 44.679 4.604 56-15.003l6.576-11.387h13.15c22.639 0 40.994-18.354 40.994-40.994v-13.151l11.387-6.575c19.607-11.322 26.325-36.393 15.003-56.001zM297.702 115.716c8.655 4.996 14.842 13.062 17.428 22.713 2.586 9.65 1.261 19.734-3.735 28.384l-5.538 9.596-17.747-30.74v-35.494zM251.155 271.155l-57.791 33.365h-66.731l-57.791-33.365-33.365-57.791v-66.731l33.365-57.791 57.791-33.365h66.731l57.791 33.365 33.365 57.791v66.731zM284.517 220.539v31.351l-27.151 15.676zM247.566 277.366l-15.676 27.151h-31.351zM187.15 308.106l-27.151 15.676-27.151-15.676zM119.459 304.517h-31.352l-15.676-27.151zM62.632 267.566l-27.151-15.676v-31.351zM31.891 207.15l-15.675-27.151 15.675-27.151zM35.481 139.459v-31.352l27.151-15.676zM72.431 82.632l15.676-27.151h31.352zM132.848 51.891l27.151-15.675 27.151 15.675zM200.539 55.481h31.351l15.676 27.151zM257.366 92.431l27.151 15.676v31.352zM288.106 152.848l15.676 27.151-15.676 27.151zM247.112 55.481c9.992 0 19.384 3.889 26.452 10.956 7.063 7.063 10.956 16.46 10.957 26.452v11.079l-30.741-17.747-17.747-30.74zM173.18 28.606c8.655-4.996 18.735-6.322 28.385-3.735 9.65 2.586 17.716 8.777 22.712 17.428l5.538 9.596h-35.494l-30.741-17.747zM95.716 42.295c4.996-8.655 13.062-14.842 22.713-17.428 9.65-2.586 19.734-1.261 28.384 3.736l9.596 5.537-30.74 17.747h-35.494zM35.481 92.885c0-9.992 3.889-19.384 10.956-26.452 7.063-7.063 16.46-10.956 26.452-10.956h11.079l-17.747 30.74-30.74 17.747zM8.606 166.817c-4.996-8.655-6.322-18.735-3.735-28.385 2.586-9.65 8.777-17.716 17.428-22.712l9.596-5.538v35.495l-17.747 30.74zM22.295 244.281c-8.655-4.996-14.842-13.062-17.428-22.712-2.586-9.65-1.261-19.734 3.736-28.385l5.537-9.596 17.747 30.74v35.495zM72.885 304.517c-9.992 0-19.384-3.889-26.452-10.957-7.063-7.063-10.956-16.46-10.956-26.451v-11.08l30.74 17.747 17.747 30.741zM146.817 331.391c-8.655 4.996-18.735 6.322-28.385 3.735-9.65-2.586-17.716-8.777-22.712-17.428l-5.538-9.596h35.495l30.74 17.747zM224.281 317.702c-4.996 8.655-13.062 14.842-22.712 17.428-9.65 2.586-19.734 1.261-28.385-3.735l-9.596-5.538 30.74-17.747h35.495zM284.517 267.112c0 9.992-3.889 19.384-10.957 26.452-7.063 7.063-16.46 10.956-26.451 10.957h-11.08l17.747-30.741 30.741-17.747zM315.13 221.565c-2.586 9.65-8.777 17.716-17.428 22.712l-9.596 5.538v-35.494l17.747-30.741 5.538 9.596c4.996 8.658 6.326 18.739 3.739 28.389z" fill="white" fill-rule="nonzero" stroke="none" stroke-width="1" stroke-linecap="butt" stroke-linejoin="miter" stroke-miterlimit="10" stroke-dasharray="" stroke-dashoffset="0" font-family="none" font-weight="none" font-size="none" text-anchor="none" style="mix-blend-mode: normal"></path></g><g transform="matrix(1,0,0,1,64,170.2454025974026)"><svg viewBox="0 0 192 19.509194805194806" height="19.509194805194806" width="192"><g><svg viewBox="0 0 192 19.509194805194806" height="19.509194805194806" width="192"><g><svg viewBox="0 0 192 19.509194805194806" height="19.509194805194806" width="192"><g><svg viewBox="0 0 192 19.509194805194806" height="19.509194805194806" width="192"><g id="SvgjsG1857"><svg viewBox="0 0 192 19.509194805194806" height="19.509194805194806" width="192" id="SvgjsSvg1856"><g><svg viewBox="0 0 192 19.509194805194806" height="19.509194805194806" width="192"><g transform="matrix(1,0,0,1,0,0)"><svg width="192" viewBox="0.15000009536743164 -36.5 482.2099914550781 49.900001525878906" height="19.509194805194806" data-palette-color="url(#d4a119cc-012e-49c9-9dd9-dac0b4588e95)"></svg></g></svg></g></svg></g></svg></g></svg></g></svg></g></svg></g></svg></g><defs><mask></mask></defs><mask><g id="SvgjsG1855"><svg viewBox="0 0 320 360" height="360" width="320"><g><svg></svg></g><g><svg viewBox="0 0 320 360" height="360" width="320"><g></g><g transform="matrix(1,0,0,1,64,170.2454025974026)"><svg viewBox="0 0 192 19.509194805194806" height="19.509194805194806" width="192"><g><svg viewBox="0 0 192 19.509194805194806" height="19.509194805194806" width="192"><g><svg viewBox="0 0 192 19.509194805194806" height="19.509194805194806" width="192"><g><svg viewBox="0 0 192 19.509194805194806" height="19.509194805194806" width="192"><g id="SvgjsG1854"><svg viewBox="0 0 192 19.509194805194806" height="19.509194805194806" width="192" id="SvgjsSvg1853"><g><svg viewBox="0 0 192 19.509194805194806" height="19.509194805194806" width="192"><g transform="matrix(1,0,0,1,0,0)"><svg width="192" viewBox="0.15000009536743164 -36.5 482.2099914550781 49.900001525878906" height="19.509194805194806" data-palette-color="url(#d4a119cc-012e-49c9-9dd9-dac0b4588e95)"></svg></g></svg></g></svg></g></svg></g></svg></g></svg></g></svg></g></svg></g><defs><mask></mask></defs></svg></g></mask></svg></g></mask><linearGradient x1="0" x2="1" y1="0.5" y2="0.5" id="6bc2d000-db05-4faf-9637-ee9c9673d92f"><stop stop-color="#f00b51" offset="0"></stop><stop stop-color="#730062" offset="1"></stop></linearGradient></svg><rect width="320" height="360" fill="none" stroke="none" visibility="hidden"></rect></g></svg></g></svg>